<?xml version="1.0" encoding="UTF-8" standalone="no"?>
<!-- Created with Inkscape (http://www.inkscape.org/) -->

<svg
   width="120"
   height="120"
   viewBox="0 0 120 120"
   version="1.1"
   id="svg1"
   inkscape:version="1.4.2 (f4327f4, 2025-05-13)"
   sodipodi:docname="19_factorioh.svg"
   xmlns:inkscape="http://www.inkscape.org/namespaces/inkscape"
   xmlns:sodipodi="http://sodipodi.sourceforge.net/DTD/sodipodi-0.dtd"
   xmlns="http://www.w3.org/2000/svg"
   xmlns:svg="http://www.w3.org/2000/svg">
  <sodipodi:namedview
     id="namedview1"
     pagecolor="#ffffff"
     bordercolor="#000000"
     borderopacity="0.25"
     inkscape:showpageshadow="2"
     inkscape:pageopacity="0.0"
     inkscape:pagecheckerboard="0"
     inkscape:deskcolor="#d1d1d1"
     inkscape:document-units="px"
     inkscape:zoom="4.7552931"
     inkscape:cx="81.698434"
     inkscape:cy="72.235295"
     inkscape:window-width="1920"
     inkscape:window-height="1009"
     inkscape:window-x="1672"
     inkscape:window-y="-8"
     inkscape:window-maximized="1"
     inkscape:current-layer="layer1" />
  <defs
     id="defs1" />
  <g
     inkscape:label="Layer 1"
     inkscape:groupmode="layer"
     id="layer1">
    <rect
       style="fill:#ffffff;fill-rule:evenodd;stroke-width:0.3;stroke-linecap:round;stroke-linejoin:round"
       id="rect7"
       width="120"
       height="120"
       x="0"
       y="0"
       ry="8.2764702"
       rx="8.2764702" />
    <g
       id="g6"
       transform="matrix(2.0694784,0,0,2.0169182,-71.895304,-32.971471)">
      <rect
         style="fill:#000000;fill-rule:evenodd;stroke-width:0.269175;stroke-linecap:round;stroke-linejoin:round"
         id="rect1"
         width="38.068279"
         height="16.951674"
         x="45.351795"
         y="58.892494" />
      <rect
         style="fill:#000000;fill-rule:evenodd;stroke-width:0.356817;stroke-linecap:round;stroke-linejoin:round"
         id="rect2"
         width="4.9565396"
         height="21.412636"
         x="46.017288"
         y="42.730968"
         ry="2.6537027" />
      <rect
         style="fill:#000000;fill-rule:evenodd;stroke-width:0.447272;stroke-linecap:round;stroke-linejoin:round"
         id="rect3"
         width="5.5830402"
         height="19.226458"
         x="52.782177"
         y="46.835663" />
      <path
         id="rect4"
         style="fill-rule:evenodd;stroke-width:0.122104;stroke-linecap:round;stroke-linejoin:round"
         d="M 83.420074,52.634919 72.471027,60.262865 H 83.420074 Z"
         sodipodi:nodetypes="cccc" />
      <path
         id="rect4-7"
         style="fill-rule:evenodd;stroke-width:0.122104;stroke-linecap:round;stroke-linejoin:round"
         d="M 77.94555,52.634919 66.996503,60.262865 H 77.94555 Z"
         sodipodi:nodetypes="cccc" />
      <path
         id="rect4-7-3"
         style="fill-rule:evenodd;stroke-width:0.115847;stroke-linecap:round;stroke-linejoin:round"
         d="m 72.471027,52.634919 -9.855678,7.627946 h 9.855678 z"
         sodipodi:nodetypes="cccc" />
      <path
         id="rect4-7-3-5"
         style="fill-rule:evenodd;stroke-width:0.115847;stroke-linecap:round;stroke-linejoin:round"
         d="m 67.543188,52.634919 -9.855678,7.627946 h 9.855678 z"
         sodipodi:nodetypes="cccc" />
      <path
         id="rect4-7-3-5-7"
         style="fill-rule:evenodd;stroke-width:0.115847;stroke-linecap:round;stroke-linejoin:round"
         d="m 62.615349,52.634919 -9.855678,7.627946 h 9.855678 z"
         sodipodi:nodetypes="cccc" />
      <rect
         style="fill:#ffffff;fill-rule:evenodd;stroke-width:0.668364;stroke-linecap:round;stroke-linejoin:round"
         id="rect5"
         width="12.156134"
         height="11.700564"
         x="68.752495"
         y="64.1436" />
      <rect
         style="fill:#000000;fill-rule:evenodd;stroke-width:0.3;stroke-linecap:round;stroke-linejoin:round"
         id="rect6-61"
         width="13.116962"
         height="0.6177327"
         x="68.272079"
         y="69.230408" />
      <rect
         style="fill:#000000;fill-rule:evenodd;stroke-width:0.548305;stroke-linecap:round;stroke-linejoin:round"
         id="rect6-0-8"
         width="13.116962"
         height="2.0634902"
         x="68.272079"
         y="70.92601" />
      <rect
         style="fill:#000000;fill-rule:evenodd;stroke-width:0.3;stroke-linecap:round;stroke-linejoin:round"
         id="rect6-6-49"
         width="13.116962"
         height="0.6177327"
         x="68.272079"
         y="70.078209" />
      <rect
         style="fill:#ffffff;fill-rule:evenodd;stroke-width:0.3;stroke-linecap:round;stroke-linejoin:round"
         id="rect5-3"
         width="5.3531599"
         height="5.3531599"
         x="48.297249"
         y="64.1436" />
      <rect
         style="fill:#ffffff;fill-rule:evenodd;stroke-width:0.3;stroke-linecap:round;stroke-linejoin:round"
         id="rect5-38"
         width="5.3531599"
         height="5.3531599"
         x="54.41264"
         y="64.1436" />
      <rect
         style="fill:#ffffff;fill-rule:evenodd;stroke-width:0.3;stroke-linecap:round;stroke-linejoin:round"
         id="rect5-7"
         width="5.3531599"
         height="5.3531599"
         x="60.52803"
         y="64.1436" />
      <rect
         style="fill:#000000;fill-rule:evenodd;stroke-width:0.3;stroke-linecap:round;stroke-linejoin:round"
         id="rect6"
         width="13.116962"
         height="0.6177327"
         x="68.272079"
         y="64.1436" />
      <rect
         style="fill:#000000;fill-rule:evenodd;stroke-width:0.3;stroke-linecap:round;stroke-linejoin:round"
         id="rect6-0"
         width="13.116962"
         height="0.6177327"
         x="68.272079"
         y="65.839203" />
      <rect
         style="fill:#000000;fill-rule:evenodd;stroke-width:0.3;stroke-linecap:round;stroke-linejoin:round"
         id="rect6-6"
         width="13.116962"
         height="0.6177327"
         x="68.272079"
         y="64.991402" />
      <rect
         style="fill:#000000;fill-rule:evenodd;stroke-width:0.3;stroke-linecap:round;stroke-linejoin:round"
         id="rect6-9"
         width="13.116962"
         height="0.6177327"
         x="68.094116"
         y="66.687004" />
      <rect
         style="fill:#000000;fill-rule:evenodd;stroke-width:0.3;stroke-linecap:round;stroke-linejoin:round"
         id="rect6-0-3"
         width="13.116962"
         height="0.6177327"
         x="68.094116"
         y="68.382607" />
      <rect
         style="fill:#000000;fill-rule:evenodd;stroke-width:0.3;stroke-linecap:round;stroke-linejoin:round"
         id="rect6-6-4"
         width="13.116962"
         height="0.6177327"
         x="68.094116"
         y="67.534805" />
      <path
         style="fill:#000000;fill-rule:evenodd;stroke-width:0.557237;stroke-linecap:round;stroke-linejoin:round"
         d="m 56.592453,29.627137 c 0.875925,-3.13 -2.164171,-17.106674 -0.762446,-12.27314 1.401723,4.833532 4.683134,9.671971 3.41772,13.188639 -1.719071,4.777412 -5.218739,7.253563 -7.263833,8.700359 -0.773063,0.546901 -4.178851,2.453986 -4.2153,1.924564 -0.03644,-0.529424 6.090038,-1.77147 8.823859,-11.540422 z"
         id="path6"
         sodipodi:nodetypes="sssszs" />
      <path
         style="fill:#000000;fill-rule:evenodd;stroke-width:0.557237;stroke-linecap:round;stroke-linejoin:round"
         d="m 65.557393,33.73066 c 0.875925,-3.13 -2.164171,-17.106674 -0.762446,-12.27314 1.401723,4.833532 4.683134,9.671971 3.41772,13.188639 -1.719071,4.777412 -5.218739,7.253563 -7.263833,8.700359 -0.773063,0.546901 -4.178851,2.453986 -4.2153,1.924564 -0.03644,-0.529424 6.090038,-1.77147 8.823859,-11.540422 z"
         id="path6-5"
         sodipodi:nodetypes="sssszs" />
      <path
         style="fill:#000000;fill-rule:evenodd;stroke-width:0.283275;stroke-linecap:round;stroke-linejoin:round"
         d="m 61.998852,32.384769 c 0.388836,-1.822133 -0.960708,-9.958671 -0.338462,-7.144823 0.622247,2.813847 2.078913,5.630549 1.517177,7.677781 -0.763121,2.781177 -2.316675,4.22267 -3.224524,5.064923 -0.343174,0.318379 -1.855054,1.428592 -1.871235,1.120387 -0.01611,-0.308204 2.703459,-1.031263 3.917044,-6.718268 z"
         id="path6-5-7"
         sodipodi:nodetypes="sssszs" />
      <path
         style="fill:#000000;fill-rule:evenodd;stroke-width:0.283275;stroke-linecap:round;stroke-linejoin:round"
         d="m 52.279846,28.005894 c 0.388836,-1.822133 -0.960708,-9.958671 -0.338462,-7.144823 0.622247,2.813847 2.078913,5.630549 1.517177,7.677781 -0.763121,2.781177 -2.316675,4.22267 -3.224524,5.064923 -0.343174,0.318379 -1.855054,1.428592 -1.871235,1.120387 -0.01611,-0.308204 2.703459,-1.031263 3.917044,-6.718268 z"
         id="path6-5-7-5"
         sodipodi:nodetypes="sssszs" />
    </g>
  </g>
</svg>
