<?xml version="1.0" encoding="UTF-8" standalone="no"?>
<!-- Created with Inkscape (http://www.inkscape.org/) -->

<svg
   width="120"
   height="120"
   viewBox="0 0 120 120"
   version="1.1"
   id="svg1"
   inkscape:version="1.4.2 (f4327f4, 2025-05-13)"
   sodipodi:docname="22_car.svg"
   xmlns:inkscape="http://www.inkscape.org/namespaces/inkscape"
   xmlns:sodipodi="http://sodipodi.sourceforge.net/DTD/sodipodi-0.dtd"
   xmlns:xlink="http://www.w3.org/1999/xlink"
   xmlns="http://www.w3.org/2000/svg"
   xmlns:svg="http://www.w3.org/2000/svg">
  <sodipodi:namedview
     id="namedview1"
     pagecolor="#ffffff"
     bordercolor="#000000"
     borderopacity="0.25"
     inkscape:showpageshadow="2"
     inkscape:pageopacity="0.0"
     inkscape:pagecheckerboard="0"
     inkscape:deskcolor="#d1d1d1"
     inkscape:document-units="px"
     showguides="true"
     inkscape:zoom="8"
     inkscape:cx="58.1875"
     inkscape:cy="84.3125"
     inkscape:window-width="1920"
     inkscape:window-height="1009"
     inkscape:window-x="1672"
     inkscape:window-y="-8"
     inkscape:window-maximized="1"
     inkscape:current-layer="g19" />
  <defs
     id="defs1">
    <linearGradient
       id="linearGradient22"
       inkscape:collect="always">
      <stop
         style="stop-color:#1b1b42;stop-opacity:1;"
         offset="0"
         id="stop22" />
      <stop
         style="stop-color:#653c3c;stop-opacity:1;"
         offset="1"
         id="stop23" />
    </linearGradient>
    <filter
       inkscape:collect="always"
       style="color-interpolation-filters:sRGB"
       id="filter19"
       x="-0.16403947"
       y="-0.16403947"
       width="1.3280789"
       height="1.3280789">
      <feGaussianBlur
         inkscape:collect="always"
         stdDeviation="1.2505541"
         id="feGaussianBlur19" />
    </filter>
    <filter
       inkscape:collect="always"
       style="color-interpolation-filters:sRGB"
       id="filter19-4"
       x="-0.16403947"
       y="-0.16403947"
       width="1.3280789"
       height="1.3280789">
      <feGaussianBlur
         inkscape:collect="always"
         stdDeviation="1.2505541"
         id="feGaussianBlur19-4" />
    </filter>
    <linearGradient
       inkscape:collect="always"
       xlink:href="#linearGradient22"
       id="linearGradient23"
       x1="60"
       y1="35.178562"
       x2="60"
       y2="92.68412"
       gradientUnits="userSpaceOnUse" />
    <filter
       inkscape:collect="always"
       style="color-interpolation-filters:sRGB"
       id="filter24"
       x="-0.23585558"
       y="-0.64318308"
       width="1.4717112"
       height="2.2863662">
      <feGaussianBlur
         inkscape:collect="always"
         stdDeviation="6.3498219"
         id="feGaussianBlur24" />
    </filter>
  </defs>
  <g
     inkscape:label="Layer 1"
     inkscape:groupmode="layer"
     id="layer1">
    <rect
       style="opacity:1;fill:url(#linearGradient23);fill-opacity:1;fill-rule:evenodd;stroke-width:0.487164;stroke-linecap:round;stroke-linejoin:round"
       id="rect19"
       width="120"
       height="120"
       x="0"
       y="0"
       ry="14.017591"
       rx="14.017591" />
    <rect
       style="opacity:1;fill:#0a0a19;fill-opacity:1;fill-rule:evenodd;stroke-width:1.10601;stroke-linecap:round;stroke-linejoin:round"
       id="rect20"
       width="120"
       height="27.314053"
       x="0"
       y="92.68412" />
    <rect
       style="opacity:1;fill:#a8a8a8;fill-opacity:1;fill-rule:evenodd;stroke-width:0.549162;stroke-linecap:round;stroke-linejoin:round"
       id="rect21"
       width="27.577164"
       height="4"
       x="-14.538478"
       y="146.3891"
       transform="matrix(1,0,0.70710679,0.70710678,0,0)" />
    <rect
       style="fill:#a8a8a8;fill-opacity:1;fill-rule:evenodd;stroke-width:0.549162;stroke-linecap:round;stroke-linejoin:round"
       id="rect21-6"
       width="27.577164"
       height="4"
       x="-46.86628"
       y="146.3891"
       transform="matrix(1,0,0.70710679,0.70710678,0,0)" />
    <rect
       style="fill:#a8a8a8;fill-opacity:1;fill-rule:evenodd;stroke-width:0.549162;stroke-linecap:round;stroke-linejoin:round"
       id="rect21-6-2"
       width="27.577164"
       height="4"
       x="-79.194084"
       y="146.3891"
       transform="matrix(1,0,0.70710679,0.70710678,0,0)" />
    <path
       id="rect21-6-9"
       style="fill:#a8a8a8;fill-opacity:1;fill-rule:evenodd;stroke-width:0.549162;stroke-linecap:round;stroke-linejoin:round"
       d="M -103.51367 146.39044 L -106.3418 150.39001 L -83.945314 150.39001 L -83.945314 146.39044 L -103.51367 146.39044 z "
       transform="matrix(1,0,0.70710679,0.70710678,0,0)" />
    <g
       id="g19"
       transform="matrix(1.4596044,0,0,1.4596044,-20.514673,-36.324137)"
       style="display:inline">
      <path
         id="circle15"
         style="fill:#1a1a1a;fill-rule:evenodd;stroke-width:0.696597;stroke-linecap:round;stroke-linejoin:round"
         d="m 73.451172,80.820312 a 9.0786133,9.0786133 0 0 0 -8.939453,7.501954 h 1.603515 l 14.701172,0.128906 0.285156,0.002 c 0.456137,0.0032 0.888496,-0.02685 1.298829,-0.08594 a 9.0786133,9.0786133 0 0 0 -8.949219,-7.546876 z" />
      <path
         id="circle14"
         style="fill:#000000;fill-rule:evenodd;stroke-width:0.706575;stroke-linecap:round;stroke-linejoin:round"
         d="m 32.279297,80.767578 a 9.2851439,9.1327877 0 0 0 -9.103516,7.341797 c 0.494789,0.09993 1.078209,0.155906 1.773438,0.185547 l 14.667969,0.02734 h 1.808593 a 9.2851439,9.1327877 0 0 0 -9.146484,-7.554688 z" />
      <circle
         style="fill:#000000;fill-rule:evenodd;stroke-width:0.476;stroke-linecap:round;stroke-linejoin:round"
         id="path1"
         cx="32.300781"
         cy="88.453598"
         r="6.2036133" />
      <circle
         style="fill:#000000;fill-rule:evenodd;stroke-width:0.476;stroke-linecap:round;stroke-linejoin:round"
         id="path1-7"
         cx="73.472969"
         cy="88.453598"
         r="6.2036133" />
      <path
         id="rect2"
         style="fill:#4c4aca;fill-opacity:1;fill-rule:evenodd;stroke-width:0.476;stroke-linecap:round;stroke-linejoin:round"
         d="m 56.193359,63.847656 c -2.131963,0.04537 -11.180112,0.0391 -13.875,0.03906 -2.624759,-0.03936 -5.960854,5.954678 -9.529296,8.117188 -1.074484,0.651147 -2.343457,0.912176 -3.496094,1.412109 -3.429938,1.487667 -13.93099,-1.371895 -9.430334,4.609179 l 0.334631,5.972852 c 0.618216,3.363152 1.356681,4.159267 4.767578,4.304688 0.753799,-3.444586 3.803977,-5.899846 7.330078,-5.900391 3.537295,-3.41e-4 6.594588,2.469418 7.337891,5.927735 h 26.498046 c 0.743149,-3.457601 3.799376,-5.927155 7.335938,-5.927735 3.587031,-7.36e-4 6.673093,2.53702 7.365234,6.056641 l 0.285156,0.002 c 4.813081,0.04588 6.982816,-3.572574 8.482422,-7.175781 0.683449,-1.64217 -2.136231,-6.641601 -18.470703,-6.441406 -3.865246,0.04737 -6.519408,-11.17518 -14.935547,-10.996094 z"
         sodipodi:nodetypes="scsscccccccccssss" />
      <path
         id="rect3"
         style="fill:#1d1a0d;fill-opacity:1;fill-rule:evenodd;stroke-width:0.529041;stroke-linecap:round;stroke-linejoin:round"
         d="m 17.333984,86.601562 v 1.714844 h 7.609375 a 7.5047283,7.5047283 0 0 1 0.595703,-1.714844 z" />
      <path
         id="rect4"
         style="fill:#bbd8ea;fill-opacity:1;fill-rule:evenodd;stroke-width:0.476;stroke-linecap:round;stroke-linejoin:round"
         d="m 52.346895,65.718148 5.305134,0.04606 c 4.260392,0.03699 10.347405,9.204881 10.347405,9.204881 l -15.657427,3e-6 z"
         sodipodi:nodetypes="csccc" />
      <path
         id="path5"
         style="fill:#bbd8ea;fill-opacity:1;fill-rule:evenodd;stroke-width:0.506494;stroke-linecap:round;stroke-linejoin:round"
         d="m 51.042,65.718148 h -7.114816 c -0.680871,0 -3.223012,1.559053 -4.749488,3.849593 -3.048173,4.573909 -6.106093,5.40135 -6.106093,5.40135 h 18.081921 z"
         sodipodi:nodetypes="cssccc" />
      <path
         id="path7"
         style="opacity:1;fill:#363492;fill-opacity:1;fill-rule:evenodd;stroke-width:0.542605;stroke-linecap:round;stroke-linejoin:round"
         d="m 20.022013,83.1224 -1.882594,0.867834 c 0.803329,3.363152 2.371717,4.180751 6.80394,4.326172 0.414484,-1.457595 1.043248,-2.506149 2.058579,-3.751953 v -0.869141 z"
         sodipodi:nodetypes="cccccc" />
      <path
         id="path18"
         style="opacity:0.354786;fill:#2a2876;fill-opacity:1;fill-rule:evenodd;stroke-width:0.476;stroke-linecap:round;stroke-linejoin:round"
         d="m 22.759765,77.332031 -2.755859,3.392578 0.02604,0.287009 2.960284,-3.449118 c 0.07559,-0.03862 0.167117,-0.283678 0.126888,-0.356819 -0.195456,-0.355355 -0.322144,-0.228611 -0.357353,0.12635 z"
         sodipodi:nodetypes="ccccsc" />
      <path
         id="path8"
         style="opacity:1;fill:#ec7841;fill-opacity:1;fill-rule:evenodd;stroke-width:0.476;stroke-linecap:round;stroke-linejoin:round"
         d="m 22.849489,77.390476 -2.849881,3.350628 c -0.210876,0.247928 -1.397921,-1.340895 -1.397921,-2.265182 0,-0.924287 0.63246,-1.67357 1.412639,-1.67357 0.780179,0 3.653527,-0.374033 2.835163,0.588124 z"
         sodipodi:nodetypes="sssss" />
      <path
         id="path8-8"
         style="fill:#efeb64;fill-opacity:1;fill-rule:evenodd;stroke-width:0.476;stroke-linecap:round;stroke-linejoin:round"
         d="m 84.390465,80.301913 5.559202,0.581455 c 0.612547,0.06407 -0.542627,2.199116 -1.196193,2.852686 -0.65357,0.653569 -1.723,0.4319 -2.274669,-0.11977 -0.55167,-0.55167 -3.344605,-3.445768 -2.08834,-3.314371 z"
         sodipodi:nodetypes="sssss" />
      <path
         id="path8-8-7"
         style="opacity:0.561056;fill:#1a1855;fill-opacity:1;fill-rule:evenodd;stroke-width:0.498358;stroke-linecap:round;stroke-linejoin:round"
         d="m 84.12408,80.297042 c -1.620668,0.18685 1.457264,3.312453 1.991828,3.898414 0.398516,0.436833 1.099563,0.699087 1.686153,0.532971 0.09944,-0.132201 0.33088,-0.537115 0.42517,-0.674225 -0.614916,0.223326 -1.319754,-0.01085 -1.747682,-0.4388 -0.524383,-0.524384 -3.074088,-3.165385 -2.246094,-3.3125 h -0.0059 c -0.01963,-0.0023 -0.03701,-0.0052 -0.05469,-0.0059 -0.0174,-6.43e-4 -0.03328,-8.61e-4 -0.04883,0 z"
         sodipodi:nodetypes="csccsccccc" />
      <path
         id="rect9"
         style="opacity:0.386139;fill:#111039;fill-opacity:1;fill-rule:evenodd;stroke-width:0.476;stroke-linecap:round;stroke-linejoin:round"
         d="m 38.410156,85.568359 c 0.570889,0.807523 0.988764,1.738389 1.207032,2.753907 h 26.498046 c 0.218266,-1.01551 0.636139,-1.946378 1.207032,-2.753907 z" />
      <path
         id="rect10"
         style="opacity:0.386139;fill:#9291df;fill-opacity:1;fill-rule:evenodd;stroke-width:0.476;stroke-linecap:round;stroke-linejoin:round"
         d="m 56.177734,63.839844 c -2.131963,0.04537 -11.180112,0.0391 -13.875,0.03906 -2.624759,-0.03936 -5.960854,5.954678 -9.529296,8.117188 -0.161769,0.09803 -0.353877,0.199323 -0.570313,0.300781 -0.234197,0.110847 -0.473269,0.212427 -0.716797,0.304687 -0.45676,0.173043 -0.92497,0.324288 -1.386719,0.488282 -0.27795,0.09872 -0.553047,0.201591 -0.822265,0.318359 -0.520582,0.225792 -1.203468,0.352212 -1.972656,0.423828 -0.375037,0.08023 0.54386,1.024321 3.332031,1.136719 10.975549,0.442452 40.873119,-0.13379 40.476562,-0.132812 -3.865246,0.04737 -6.519408,-11.17518 -14.935547,-10.996094 z"
         sodipodi:nodetypes="scscssscscs" />
      <path
         id="rect11"
         style="opacity:1;fill:#3935bc;fill-rule:evenodd;stroke-width:0.48664;stroke-linecap:round;stroke-linejoin:round"
         d="m 51.153525,74.969093 c 0,0 11.556255,-10e-7 16.845909,-4e-6 3.540293,-2e-6 -0.677168,10.59927 -0.677168,10.59927 l -16.168741,10e-7 z"
         sodipodi:nodetypes="csccc" />
      <path
         id="rect11-8"
         style="fill:#3935bc;fill-rule:evenodd;stroke-width:0.48664;stroke-linecap:round;stroke-linejoin:round"
         d="m 35.496098,74.969093 c 5.682803,-2e-6 15.657427,0 15.657427,0 V 85.56836 l -12.743369,-10e-7 c 0,0 -6.578242,-10.599265 -2.914058,-10.599266 z"
         sodipodi:nodetypes="scccs" />
      <path
         id="rect12"
         style="opacity:1;fill:#2c2a92;fill-rule:evenodd;stroke-width:0.291199;stroke-linecap:round;stroke-linejoin:round"
         d="m 51.153525,74.969093 1.188482,-10e-7 -1.177272,10.599267 h -0.640977 z"
         sodipodi:nodetypes="ccccc" />
      <path
         id="path13"
         style="opacity:1;fill:#000000;fill-opacity:1;fill-rule:evenodd;stroke-width:0.138653;stroke-linecap:round;stroke-linejoin:round"
         d="m 53.319257,77.846566 a 0.61145347,0.3198098 0 0 0 -0.10351,0.176672 0.61145347,0.3198098 0 0 0 0.611445,0.319422 0.61145347,0.3198098 0 0 0 0.611446,-0.319422 0.61145347,0.3198098 0 0 0 -0.10351,-0.176672 0.55963555,0.57565751 0 0 1 -0.507936,0.336383 0.55963555,0.57565751 0 0 1 -0.507935,-0.336383 z" />
      <path
         id="path13-5"
         style="fill:#000000;fill-opacity:1;fill-rule:evenodd;stroke-width:0.138653;stroke-linecap:round;stroke-linejoin:round"
         d="m 36.658074,77.846566 a 0.61145347,0.3198098 0 0 0 -0.10351,0.176672 0.61145347,0.3198098 0 0 0 0.611445,0.319422 0.61145347,0.3198098 0 0 0 0.611446,-0.319422 0.61145347,0.3198098 0 0 0 -0.10351,-0.176672 0.55963555,0.57565751 0 0 1 -0.507936,0.336383 0.55963555,0.57565751 0 0 1 -0.507935,-0.336383 z" />
      <circle
         style="fill:#666666;fill-rule:evenodd;stroke-width:0.327999;stroke-linecap:round;stroke-linejoin:round"
         id="circle16"
         cx="32.300781"
         cy="88.453598"
         r="4.2747445" />
      <circle
         style="fill:#666666;fill-rule:evenodd;stroke-width:0.327999;stroke-linecap:round;stroke-linejoin:round"
         id="circle16-3"
         cx="73.472969"
         cy="88.453598"
         r="4.2747445" />
      <path
         sodipodi:type="star"
         style="opacity:1;fill:#999999;fill-opacity:1;fill-rule:evenodd;stroke-width:0.476;stroke-linecap:round;stroke-linejoin:round"
         id="path16"
         inkscape:flatsided="false"
         sodipodi:sides="8"
         sodipodi:cx="20.96875"
         sodipodi:cy="90.96875"
         sodipodi:r1="3.7243774"
         sodipodi:r2="0.52141285"
         sodipodi:arg1="0.93652513"
         sodipodi:arg2="1.3292242"
         inkscape:rounded="-0.33"
         inkscape:randomized="0"
         d="m 23.175781,93.96875 c 0.863581,-0.635316 -3.123263,-2.23725 -2.082294,-2.493727 1.04097,-0.256478 -1.745331,3.014247 -0.685451,3.175654 1.059881,0.161407 -0.626506,-3.790455 0.290928,-3.235736 0.917434,0.55472 -3.365531,0.897259 -2.730214,1.76084 0.635316,0.863581 2.23725,-3.123263 2.493727,-2.082294 0.256478,1.04097 -3.014247,-1.745331 -3.175654,-0.685451 -0.161407,1.059881 3.790455,-0.626506 3.235736,0.290928 -0.55472,0.917434 -0.897259,-3.365531 -1.76084,-2.730214 -0.863581,0.635316 3.123263,2.23725 2.082294,2.493727 -1.04097,0.256478 1.745331,-3.014247 0.685451,-3.175654 -1.059881,-0.161407 0.626506,3.790455 -0.290928,3.235736 -0.917434,-0.55472 3.365531,-0.897259 2.730214,-1.76084 -0.635316,-0.863581 -2.23725,3.123263 -2.493727,2.082294 -0.256478,-1.04097 3.014247,1.745331 3.175654,0.685451 0.161407,-1.059881 -3.790455,0.626506 -3.235736,-0.290928 0.55472,-0.917434 0.897259,3.365531 1.76084,2.730214 z"
         inkscape:transform-center-x="0.0068508632"
         inkscape:transform-center-y="-0.34912452"
         transform="translate(11.332031,-2.515152)" />
      <circle
         style="opacity:1;fill:#999999;fill-opacity:1;fill-rule:evenodd;stroke-width:0.476;stroke-linecap:round;stroke-linejoin:round"
         id="path17"
         cx="32.300781"
         cy="88.453598"
         r="1.0720248" />
      <path
         sodipodi:type="star"
         style="fill:#999999;fill-opacity:1;fill-rule:evenodd;stroke-width:0.476;stroke-linecap:round;stroke-linejoin:round"
         id="path16-3"
         inkscape:flatsided="false"
         sodipodi:sides="8"
         sodipodi:cx="20.96875"
         sodipodi:cy="90.96875"
         sodipodi:r1="3.7243774"
         sodipodi:r2="0.52141285"
         sodipodi:arg1="0.93652513"
         sodipodi:arg2="1.3292242"
         inkscape:rounded="-0.33"
         inkscape:randomized="0"
         d="m 23.175781,93.96875 c 0.863581,-0.635316 -3.123263,-2.23725 -2.082294,-2.493727 1.04097,-0.256478 -1.745331,3.014247 -0.685451,3.175654 1.059881,0.161407 -0.626506,-3.790455 0.290928,-3.235736 0.917434,0.55472 -3.365531,0.897259 -2.730214,1.76084 0.635316,0.863581 2.23725,-3.123263 2.493727,-2.082294 0.256478,1.04097 -3.014247,-1.745331 -3.175654,-0.685451 -0.161407,1.059881 3.790455,-0.626506 3.235736,0.290928 -0.55472,0.917434 -0.897259,-3.365531 -1.76084,-2.730214 -0.863581,0.635316 3.123263,2.23725 2.082294,2.493727 -1.04097,0.256478 1.745331,-3.014247 0.685451,-3.175654 -1.059881,-0.161407 0.626506,3.790455 -0.290928,3.235736 -0.917434,-0.55472 3.365531,-0.897259 2.730214,-1.76084 -0.635316,-0.863581 -2.23725,3.123263 -2.493727,2.082294 -0.256478,-1.04097 3.014247,1.745331 3.175654,0.685451 0.161407,-1.059881 -3.790455,0.626506 -3.235736,-0.290928 0.55472,-0.917434 0.897259,3.365531 1.76084,2.730214 z"
         inkscape:transform-center-x="0.0068508632"
         inkscape:transform-center-y="-0.34912452"
         transform="translate(52.504219,-2.515152)" />
      <circle
         style="fill:#999999;fill-opacity:1;fill-rule:evenodd;stroke-width:0.476;stroke-linecap:round;stroke-linejoin:round"
         id="path17-8"
         cx="73.472969"
         cy="88.453598"
         r="1.0720248" />
      <rect
         style="opacity:1;fill:#363492;fill-opacity:1;fill-rule:evenodd;stroke-width:0.607905;stroke-linecap:round;stroke-linejoin:round"
         id="rect18"
         width="7.0444341"
         height="2.5479047"
         x="80.686035"
         y="84.833672"
         ry="1.2739524" />
      <ellipse
         style="opacity:0.354786;fill:#f8f8f8;fill-opacity:1;fill-rule:evenodd;stroke-width:0.45905;stroke-linecap:round;stroke-linejoin:round"
         id="path19-6"
         cx="-43.44162"
         cy="-109.95659"
         rx="0.37473193"
         ry="1.5568197"
         transform="matrix(-0.44387194,0.89609023,-0.20676604,-0.97839042,0,0)" />
      <ellipse
         style="opacity:0.354786;fill:#f8f8f8;fill-opacity:1;fill-rule:evenodd;stroke-width:0.456488;stroke-linecap:round;stroke-linejoin:round"
         id="path19-8-5"
         cx="-43.214756"
         cy="-111.47694"
         rx="0.37059829"
         ry="1.5566647"
         transform="matrix(-0.42945154,0.9030899,-0.20496147,-0.97877004,0,0)" />
      <ellipse
         style="opacity:0.354786;fill:#f8f8f8;fill-opacity:1;fill-rule:evenodd;stroke-width:0.446741;stroke-linecap:round;stroke-linejoin:round"
         id="path19-86-0"
         cx="-47.401463"
         cy="-117.86612"
         rx="0.35507008"
         ry="1.5560977"
         transform="matrix(-0.36735862,0.93007937,-0.19773289,-0.98025594,0,0)" />
      <ellipse
         style="opacity:0.354786;fill:#f8f8f8;fill-opacity:1;fill-rule:evenodd;stroke-width:0.45905;stroke-linecap:round;stroke-linejoin:round"
         id="path19-6-1"
         cx="-63.698891"
         cy="-127.32872"
         rx="0.37473193"
         ry="1.5568197"
         transform="matrix(-0.44387194,0.89609023,-0.20676604,-0.97839042,0,0)" />
      <ellipse
         style="opacity:0.354786;fill:#f8f8f8;fill-opacity:1;fill-rule:evenodd;stroke-width:0.456488;stroke-linecap:round;stroke-linejoin:round"
         id="path19-8-5-3"
         cx="-63.949192"
         cy="-129.42747"
         rx="0.37059829"
         ry="1.5566647"
         transform="matrix(-0.42945154,0.9030899,-0.20496147,-0.97877004,0,0)" />
      <ellipse
         style="opacity:0.354786;fill:#f8f8f8;fill-opacity:1;fill-rule:evenodd;stroke-width:0.446741;stroke-linecap:round;stroke-linejoin:round"
         id="path19-86-0-8"
         cx="-70.495872"
         cy="-138.5995"
         rx="0.35507008"
         ry="1.5560977"
         transform="matrix(-0.36735862,0.93007937,-0.19773289,-0.98025594,0,0)" />
      <circle
         style="opacity:0.627063;mix-blend-mode:normal;fill:#e5e870;fill-opacity:0.739965;fill-rule:evenodd;stroke-width:0.476;stroke-linecap:round;stroke-linejoin:round;filter:url(#filter19)"
         id="path19"
         cx="87.018333"
         cy="81.62664"
         r="9.1481943"
         transform="matrix(0.53775788,0,0,0.3121489,40.453853,56.808966)" />
      <circle
         style="opacity:0.405941;mix-blend-mode:normal;fill:#e03a3a;fill-opacity:0.739965;fill-rule:evenodd;stroke-width:0.476;stroke-linecap:round;stroke-linejoin:round;filter:url(#filter19-4)"
         id="path19-66"
         cx="87.018333"
         cy="81.62664"
         r="9.1481943"
         transform="matrix(0.33405659,0,0,0.27741416,-8.4686027,55.998162)" />
    </g>
    <path
       d="m 39.092943,12.854064 -0.08187,11.609563 0.08187,9.857485 q 0.851477,0.114622 1.408212,0.114622 1.604707,0 3.291287,-0.573109 1.686579,-0.57311 2.98017,-1.555583 0.835102,-0.638608 1.719328,-1.702955 0.900601,-1.064346 1.440962,-2.079569 0.311116,-0.589484 0.671357,-0.589484 0.54036,0 0.54036,0.458488 0,0.491236 -0.818728,1.670205 -0.802353,1.162594 -1.768452,2.095944 -2.095944,2.01407 -4.928743,2.800049 -1.702954,0.474863 -3.274912,0.474863 -2.292438,0 -4.601251,-0.982474 -3.700651,-1.555583 -5.632849,-4.928743 -1.604707,-2.800049 -1.604707,-5.943965 0,-3.209414 1.670205,-6.058587 1.784827,-3.029294 5.043365,-4.634001 2.374311,-1.146219 5.125237,-1.146219 4.715873,0 8.154531,3.193039 1.637456,1.522834 1.637456,2.194191 0,0.180121 -0.163746,0.327492 -0.163745,0.147371 -0.36024,0.147371 -0.327491,0 -0.785979,-0.638608 -1.408212,-1.948573 -3.717025,-3.078418 -2.308813,-1.146219 -4.879619,-1.146219 -0.605859,0 -1.146219,0.114622 z m 25.70806,11.003705 v -1.997697 q -0.01637,-2.079569 -0.0655,-2.554431 -0.04912,-0.474862 -0.294742,-0.851477 -0.589484,-0.916976 -2.750926,-0.916976 -3.34041,0 -5.157986,2.095944 -0.736855,0.851477 -1.244467,0.851477 -0.376615,0 -0.654982,-0.261993 -0.278368,-0.261993 -0.278368,-0.605859 0,-1.031597 2.43981,-2.128692 2.325187,-1.047972 6.009463,-1.047972 6.058587,0 8.547521,1.833951 1.080721,0.802353 1.408212,1.801201 0.327491,0.998848 0.327491,3.520531 v 6.5007 q -0.0655,1.801202 0.09825,2.718177 0.18012,0.900601 0.785979,1.948573 h -9.169753 v -1.719329 q -1.50646,1.031597 -2.996545,1.555583 -1.47371,0.523986 -2.914672,0.523986 -2.439809,0 -4.339258,-1.424587 -2.472559,-1.8667 -2.472559,-4.84687 0,-2.636304 1.997697,-4.257385 2.325187,-1.915824 5.763845,-1.915824 1.408212,0 2.488933,0.261993 1.080721,0.245619 2.472559,0.916976 z m 0.01637,1.178968 q -2.063194,-1.031597 -3.193039,-1.031597 -0.949725,0 -1.244467,0.753229 -0.163745,0.409364 -0.163745,2.374312 V 31.0462 q 0.01637,1.293591 0.08187,1.571958 0.163745,0.75323 1.11347,0.75323 0.753229,0 1.670205,-0.442113 0.93335,-0.458488 1.702954,-1.195343 z m 20.353579,-3.078417 -0.03275,6.287831 0.0655,6.517075 h -8.40015 l 0.01637,-0.900601 0.01637,-3.340411 0.04912,-6.009463 -0.0655,-6.680821 -0.01637,-0.949724 h 8.383775 v 3.373159 q 1.883074,-1.997696 2.61993,-2.521682 1.702954,-1.195343 3.209413,-1.195343 0.916976,0 1.50646,0.39299 0.605859,0.392989 0.605859,0.998848 0,0.474862 -0.360241,0.785979 -0.36024,0.311116 -0.9006,0.311116 -0.343866,0 -0.769605,-0.196494 -0.72048,-0.343866 -1.195343,-0.343866 -1.178968,0 -2.276063,0.802353 -1.097096,0.802354 -2.456184,2.669054 z"
       id="text23"
       style="font-size:33.5351px;line-height:24.6216px;font-family:Broadway;-inkscape-font-specification:Broadway;text-align:center;text-anchor:middle;fill:#ffffff;fill-rule:evenodd;stroke-width:0.912023;stroke-linecap:round;stroke-linejoin:round"
       aria-label="Car" />
    <path
       d="m 39.092943,12.854064 -0.08187,11.609563 0.08187,9.857485 q 0.851477,0.114622 1.408212,0.114622 1.604707,0 3.291287,-0.573109 1.686579,-0.57311 2.98017,-1.555583 0.835102,-0.638608 1.719328,-1.702955 0.900601,-1.064346 1.440962,-2.079569 0.311116,-0.589484 0.671357,-0.589484 0.54036,0 0.54036,0.458488 0,0.491236 -0.818728,1.670205 -0.802353,1.162594 -1.768452,2.095944 -2.095944,2.01407 -4.928743,2.800049 -1.702954,0.474863 -3.274912,0.474863 -2.292438,0 -4.601251,-0.982474 -3.700651,-1.555583 -5.632849,-4.928743 -1.604707,-2.800049 -1.604707,-5.943965 0,-3.209414 1.670205,-6.058587 1.784827,-3.029294 5.043365,-4.634001 2.374311,-1.146219 5.125237,-1.146219 4.715873,0 8.154531,3.193039 1.637456,1.522834 1.637456,2.194191 0,0.180121 -0.163746,0.327492 -0.163745,0.147371 -0.36024,0.147371 -0.327491,0 -0.785979,-0.638608 -1.408212,-1.948573 -3.717025,-3.078418 -2.308813,-1.146219 -4.879619,-1.146219 -0.605859,0 -1.146219,0.114622 z m 25.70806,11.003705 v -1.997697 q -0.01637,-2.079569 -0.0655,-2.554431 -0.04912,-0.474862 -0.294742,-0.851477 -0.589484,-0.916976 -2.750926,-0.916976 -3.34041,0 -5.157986,2.095944 -0.736855,0.851477 -1.244467,0.851477 -0.376615,0 -0.654982,-0.261993 -0.278368,-0.261993 -0.278368,-0.605859 0,-1.031597 2.43981,-2.128692 2.325187,-1.047972 6.009463,-1.047972 6.058587,0 8.547521,1.833951 1.080721,0.802353 1.408212,1.801201 0.327491,0.998848 0.327491,3.520531 v 6.5007 q -0.0655,1.801202 0.09825,2.718177 0.18012,0.900601 0.785979,1.948573 h -9.169753 v -1.719329 q -1.50646,1.031597 -2.996545,1.555583 -1.47371,0.523986 -2.914672,0.523986 -2.439809,0 -4.339258,-1.424587 -2.472559,-1.8667 -2.472559,-4.84687 0,-2.636304 1.997697,-4.257385 2.325187,-1.915824 5.763845,-1.915824 1.408212,0 2.488933,0.261993 1.080721,0.245619 2.472559,0.916976 z m 0.01637,1.178968 q -2.063194,-1.031597 -3.193039,-1.031597 -0.949725,0 -1.244467,0.753229 -0.163745,0.409364 -0.163745,2.374312 V 31.0462 q 0.01637,1.293591 0.08187,1.571958 0.163745,0.75323 1.11347,0.75323 0.753229,0 1.670205,-0.442113 0.93335,-0.458488 1.702954,-1.195343 z m 20.353579,-3.078417 -0.03275,6.287831 0.0655,6.517075 h -8.40015 l 0.01637,-0.900601 0.01637,-3.340411 0.04912,-6.009463 -0.0655,-6.680821 -0.01637,-0.949724 h 8.383775 v 3.373159 q 1.883074,-1.997696 2.61993,-2.521682 1.702954,-1.195343 3.209413,-1.195343 0.916976,0 1.50646,0.39299 0.605859,0.392989 0.605859,0.998848 0,0.474862 -0.360241,0.785979 -0.36024,0.311116 -0.9006,0.311116 -0.343866,0 -0.769605,-0.196494 -0.72048,-0.343866 -1.195343,-0.343866 -1.178968,0 -2.276063,0.802353 -1.097096,0.802354 -2.456184,2.669054 z"
       id="text24"
       style="font-size:33.5351px;line-height:24.6216px;font-family:Broadway;-inkscape-font-specification:Broadway;text-align:center;text-anchor:middle;opacity:0.59571;fill:#ffffff;fill-rule:evenodd;stroke-width:0.912023;stroke-linecap:round;stroke-linejoin:round;filter:url(#filter24)"
       aria-label="Car" />
  </g>
</svg>
