<?xml version="1.0" encoding="UTF-8" standalone="no"?>
<!-- Created with Inkscape (http://www.inkscape.org/) -->

<svg
   width="120"
   height="120"
   viewBox="0 0 120 120"
   version="1.1"
   id="svg1"
   inkscape:version="1.4.2 (f4327f4, 2025-05-13)"
   sodipodi:docname="25_chimken.svg"
   xmlns:inkscape="http://www.inkscape.org/namespaces/inkscape"
   xmlns:sodipodi="http://sodipodi.sourceforge.net/DTD/sodipodi-0.dtd"
   xmlns:xlink="http://www.w3.org/1999/xlink"
   xmlns="http://www.w3.org/2000/svg"
   xmlns:svg="http://www.w3.org/2000/svg">
  <sodipodi:namedview
     id="namedview1"
     pagecolor="#ffffff"
     bordercolor="#000000"
     borderopacity="0.25"
     inkscape:showpageshadow="2"
     inkscape:pageopacity="0.0"
     inkscape:pagecheckerboard="0"
     inkscape:deskcolor="#d1d1d1"
     inkscape:document-units="px"
     inkscape:zoom="3.3624999"
     inkscape:cx="44.312269"
     inkscape:cy="82.230485"
     inkscape:window-width="1920"
     inkscape:window-height="1009"
     inkscape:window-x="1672"
     inkscape:window-y="-8"
     inkscape:window-maximized="1"
     inkscape:current-layer="layer1" />
  <defs
     id="defs1">
    <inkscape:path-effect
       effect="fillet_chamfer"
       id="path-effect23"
       is_visible="true"
       lpeversion="1"
       nodesatellites_param="F,0,0,1,0,0,0,1 @ F,0,0,1,0,0,0,1 @ F,0,0,1,0,0,0,1 @ F,0,0,1,0,0,0,1 @ F,0,0,1,0,0,0,1 @ F,0,0,1,0,0,0,1 @ F,0,0,1,0,0,0,1 @ F,0,0,1,0,0,0,1 @ F,0,0,1,0,0,0,1 @ F,0,0,1,0,0,0,1 @ F,0,0,1,0,0,0,1 @ F,0,0,1,0,0,0,1 @ F,0,0,1,0,0,0,1 @ F,0,0,1,0,0,0,1 @ F,0,0,1,0,0,0,1"
       radius="0"
       unit="px"
       method="auto"
       mode="F"
       chamfer_steps="1"
       flexible="false"
       use_knot_distance="true"
       apply_no_radius="true"
       apply_with_radius="true"
       only_selected="false"
       hide_knots="false" />
    <linearGradient
       id="linearGradient12"
       inkscape:collect="always">
      <stop
         style="stop-color:#ded4a8;stop-opacity:1;"
         offset="0.45472062"
         id="stop12" />
      <stop
         style="stop-color:#ffffff;stop-opacity:0;"
         offset="0.45472062"
         id="stop13" />
    </linearGradient>
    <linearGradient
       inkscape:collect="always"
       xlink:href="#linearGradient12"
       id="linearGradient13"
       x1="-41.616085"
       y1="74.741409"
       x2="-42.054626"
       y2="74.741409"
       gradientUnits="userSpaceOnUse"
       gradientTransform="matrix(-0.99473947,0,0,1.5775154,0.20281834,-42.756037)" />
    <filter
       inkscape:collect="always"
       style="color-interpolation-filters:sRGB"
       id="filter29"
       x="-0.014788"
       y="-0.12297439"
       width="1.029576"
       height="1.2459488">
      <feGaussianBlur
         inkscape:collect="always"
         stdDeviation="0.61433085"
         id="feGaussianBlur29" />
    </filter>
  </defs>
  <g
     inkscape:label="Layer 1"
     inkscape:groupmode="layer"
     id="layer1">
    <rect
       style="opacity:1;fill:#aaac5a;fill-opacity:1;fill-rule:evenodd;stroke:none;stroke-width:0.3;stroke-linecap:round;stroke-linejoin:round;stroke-dasharray:none;stroke-opacity:1"
       id="rect29"
       width="120"
       height="120"
       x="0"
       y="0"
       ry="13.37955" />
    <ellipse
       style="opacity:0.26033058;fill:#1f2e21;fill-opacity:1;fill-rule:evenodd;stroke:none;stroke-width:0.3;stroke-linecap:round;stroke-linejoin:round;stroke-dasharray:none;stroke-opacity:1;filter:url(#filter29)"
       id="path29"
       cx="58.689861"
       cy="114.00528"
       rx="49.851028"
       ry="5.9947195"
       transform="matrix(0.4281189,0,0,1,33.563621,0)" />
    <g
       id="g13"
       transform="matrix(2.2853975,0,0,2.2853975,-27.543646,-90.806638)">
      <g
         id="g29">
        <rect
           style="fill:#d40000;fill-rule:evenodd;stroke:none;stroke-width:1.03602;stroke-linecap:round;stroke-linejoin:round;stroke-opacity:0.618209;-inkscape-stroke:none"
           id="rect3-7"
           width="3.5316713"
           height="3.5316713"
           x="59.622921"
           y="-23.242796"
           transform="matrix(0.46619318,0.88468295,-0.90700151,-0.42112736,0,0)" />
        <rect
           style="opacity:1;fill:#d40000;fill-rule:evenodd;stroke:none;stroke-width:1.04225;stroke-linecap:round;stroke-linejoin:round;stroke-opacity:0.618209;-inkscape-stroke:none"
           id="rect3"
           width="3.5529041"
           height="3.5529041"
           x="116.99619"
           y="65.176949"
           transform="matrix(0.94180858,0.33614965,-0.94180858,0.33614965,0,0)" />
        <path
           id="rect27"
           style="fill:#b00000;fill-opacity:1;fill-rule:evenodd;stroke:none;stroke-width:1.03602;stroke-linecap:round;stroke-linejoin:round;stroke-opacity:0.618209;-inkscape-stroke:none"
           d="m 57.253635,-27.662573 3.206448,4.421656 0.398137,0.31231 2.295344,0.04496 0.0013,-0.358924 -2.531986,-0.01801 -3.429951,-4.840163 z"
           transform="matrix(0.46619318,0.88468295,-0.90700151,-0.42112736,0,0)" />
        <path
           id="rect9-8"
           style="fill:#484537;fill-rule:evenodd;stroke:none;stroke-width:0.889428;stroke-linecap:round;stroke-linejoin:round;stroke-opacity:0.618209;-inkscape-stroke:none"
           d="m 40.344905,80.585225 c -0.196045,0 -0.353516,0.403444 -0.353516,0.902344 -0.0643,2.129618 0.707031,4.530345 0.02879,6.381806 l -0.358821,1.70218 c -0.01271,0.182546 0.124503,0.343716 0.306641,0.361328 0.182138,0.01761 0.338852,-0.116282 0.351562,-0.298828 l 0.08594,-1.238281 0.478515,0.666016 c 0.115128,0.159929 0.319626,0.176432 0.458985,0.03711 0.139358,-0.139323 0.160049,-0.381086 0.04492,-0.541016 l -0.458985,-0.634765 0.898438,0.08594 c 0.214165,0.02071 0.399117,-0.134965 0.414062,-0.349609 0.01494,-0.214644 -0.14521,-0.403119 -0.359375,-0.423828 L 40.69842,87.120381 v -5.632812 c 0,-0.4989 -0.15747,-0.902344 -0.353515,-0.902344 z"
           sodipodi:nodetypes="ssccscccscccsccss" />
        <path
           id="rect25"
           style="opacity:1;fill:#ff5555;fill-rule:evenodd;stroke:none;stroke-width:1.04225;stroke-linecap:round;stroke-linejoin:round;stroke-opacity:0.618209;-inkscape-stroke:none"
           d="m 116.99791,65.177737 -0.002,3.55229 0.018,-6.16e-4 0.003,-3.291947 3.53321,-5.53e-4 -0.001,-0.260344 z"
           transform="matrix(0.94180858,0.33614965,-0.94180858,0.33614965,0,0)" />
        <path
           id="path1"
           style="opacity:1;fill:#f4eed7;fill-rule:evenodd;stroke:none;stroke-width:1.41886;stroke-linecap:round;stroke-linejoin:round;stroke-opacity:0.618209;-inkscape-stroke:none"
           d="m 45.054688,56.433594 c -2.142886,0 -3.877797,3.566407 -3.869141,5.269531 0.0087,1.703124 -0.502902,7.191969 -2.164607,7.32159 l -5.116577,0.39912 c -5.907185,0.460792 -6.205713,-3.699997 -9.101956,-6.010753 0.299704,1.81128 -0.339648,3.56749 -0.340555,4.616607 6.9e-4,6.527893 2.166889,14.520574 12.637757,14.442405 13.272277,7.9e-4 11.822266,-10.144602 11.822266,-13.708422 v -1.476563 -5.583984 c 0,-2.918915 -1.724302,-5.269531 -3.867187,-5.269531 z"
           sodipodi:nodetypes="szsscccscss" />
        <ellipse
           style="opacity:1;fill:#ffffff;fill-rule:evenodd;stroke:none;stroke-width:2.08507;stroke-linecap:round;stroke-linejoin:round;stroke-opacity:0.618209;-inkscape-stroke:none"
           id="path6"
           cx="45.346119"
           cy="61.850201"
           rx="1.858736"
           ry="2.496619" />
        <ellipse
           style="opacity:1;fill:#000000;fill-rule:evenodd;stroke:none;stroke-width:2.07935;stroke-linecap:round;stroke-linejoin:round;stroke-opacity:0.618209;-inkscape-stroke:none"
           id="path7"
           cx="44.752499"
           cy="62.224545"
           rx="1.0841326"
           ry="2.1682653" />
        <path
           id="path21"
           style="opacity:0.309917;fill:#68581c;fill-opacity:1;fill-rule:evenodd;stroke:none;stroke-width:0.375805;stroke-linecap:round;stroke-linejoin:round;stroke-dasharray:none"
           d="m 31.40625,77.095703 c -0.346736,0.196538 -0.525822,0.406798 -0.527344,0.619141 2.11e-4,0.907239 3.172728,1.642655 7.085938,1.642578 3.793337,-0.0016 3.908349,0.320092 3.832031,-0.574219 -1.260266,-0.03853 -0.446052,0.02143 -3.324219,0.02148 -3.913211,7.6e-5 -7.085729,-0.735339 -7.085937,-1.642579 0.0046,-0.02216 0.01109,-0.0443 0.01953,-0.06641 z"
           sodipodi:nodetypes="ccccsccc" />
        <path
           id="path12"
           style="opacity:1;fill:#f4eed7;fill-rule:evenodd;stroke:url(#linearGradient13);stroke-width:0.375805;stroke-linecap:round;stroke-linejoin:round;stroke-dasharray:none"
           d="m 39.838912,71.14242 a 4.0067724,2.5963269 0 0 0 -4.008101,2.597354 4.0067724,2.5963269 0 0 0 0.211771,0.810325 5.8825221,1.0140009 0 0 0 -2.086622,0.773352 5.8825221,1.0140009 0 0 0 0.648912,0.462163 7.0853401,1.6426664 0 0 0 -3.21736,1.377246 7.0853401,1.6426664 0 0 0 7.085575,1.642218 7.0853401,1.6426664 0 0 0 7.085576,-1.642218 7.0853401,1.6426664 0 0 0 -1.773822,-1.087624 5.8825221,1.0140009 0 0 0 1.937022,-0.751785 5.8825221,1.0140009 0 0 0 -2.086622,-0.773352 4.0067724,2.5963269 0 0 0 0.209828,-0.810325 4.0067724,2.5963269 0 0 0 -4.006157,-2.597354 z" />
        <ellipse
           style="opacity:1;mix-blend-mode:normal;fill:#ffffff;fill-rule:evenodd;stroke:none;stroke-width:0.367467;stroke-linecap:round;stroke-linejoin:round;stroke-dasharray:none;stroke-opacity:1"
           id="path13"
           cx="44.581478"
           cy="61.600201"
           rx="0.32527882"
           ry="0.34219155" />
        <path
           style="opacity:0.264463;fill:#ded4a8;fill-opacity:1;fill-rule:evenodd;stroke:none;stroke-width:1.41886;stroke-linecap:round;stroke-linejoin:round;stroke-opacity:0.618209;-inkscape-stroke:none"
           d="m 24.802734,63.412109 c 0.299704,1.81128 -0.340889,3.568071 -0.341796,4.617188 6.89e-4,6.527893 2.167803,14.521528 12.638671,14.443359 8.109951,4.83e-4 10.723531,-3.787109 11.529297,-7.546875 -1.022698,3.450452 -3.826747,6.67232 -11.30664,6.671875 -10.470868,0.07817 -12.637982,-7.915466 -12.638672,-14.443359 7.16e-4,-0.82837 0.399683,-2.097255 0.419922,-3.486328 -0.09739,-0.08716 -0.19711,-0.173146 -0.300782,-0.25586 z"
           id="path20" />
        <path
           style="opacity:0.264463;fill:#ded4a8;fill-opacity:1;fill-rule:evenodd;stroke:none;stroke-width:1.41886;stroke-linecap:round;stroke-linejoin:round;stroke-opacity:0.618209;-inkscape-stroke:none"
           d="m 41.462891,60.228516 c -0.180486,0.548637 -0.279423,1.065661 -0.277344,1.474609 0.0045,0.877731 -0.130171,2.761497 -0.488281,4.398437 0.52618,-1.780999 0.71625,-4.233382 0.710937,-5.273437 -9.19e-4,-0.180818 0.0179,-0.383284 0.05469,-0.599609 z"
           id="path17" />
        <path
           id="rect9"
           style="opacity:1;fill:#484537;fill-rule:evenodd;stroke:none;stroke-width:0.889428;stroke-linecap:round;stroke-linejoin:round;stroke-opacity:0.618209;-inkscape-stroke:none"
           d="m 35.039932,81.504942 c -0.196045,0 -0.353516,0.403444 -0.353516,0.902344 -0.0643,2.129618 0.707031,4.530345 0.02879,6.381806 l -0.358821,1.70218 c -0.01271,0.182546 0.124503,0.343716 0.306641,0.361328 0.182138,0.01761 0.338852,-0.116282 0.351562,-0.298828 l 0.08594,-1.238281 0.478515,0.666016 c 0.115128,0.159929 0.319626,0.176432 0.458985,0.03711 0.139358,-0.139323 0.160049,-0.381086 0.04492,-0.541016 l -0.458985,-0.634765 0.898438,0.08594 c 0.214165,0.02071 0.399117,-0.134965 0.414062,-0.349609 0.01494,-0.214644 -0.14521,-0.403119 -0.359375,-0.423828 l -1.183641,-0.115241 v -5.632812 c 0,-0.4989 -0.15747,-0.902344 -0.353515,-0.902344 z"
           sodipodi:nodetypes="ssccscccscccsccss" />
        <path
           id="path23"
           style="opacity:1;fill:#efebc5;fill-opacity:1;fill-rule:evenodd;stroke:none;stroke-width:1.41886;stroke-linecap:round;stroke-linejoin:round;stroke-opacity:0.618209;-inkscape-stroke:none"
           d="m 48.908203,64.90625 -0.002,0.002 -0.002,0.002 c -0.104225,0.09561 -0.606352,1.709338 -0.601563,2.421875 0.0074,1.105342 0,1.476563 0,1.476563 0,2.050972 -0.320152,4.650067 -0.695975,6.537372 -0.375822,1.887305 0.805291,0.303835 0.805291,0.303835 2.155703,-3.22783 0.509825,-4.825712 0.509825,-6.886129 V 67.287109 64.96875 c 0.0022,-0.03115 1.89e-4,-0.05222 -0.0039,-0.06055 l -0.002,-0.002 h -0.002 -0.002 -0.002 z"
           sodipodi:nodetypes="ccccczcscccccccc"
           inkscape:path-effect="#path-effect23"
           inkscape:original-d="m 48.908203,64.90625 -0.002,0.002 -0.002,0.002 c -0.104225,0.09561 -0.606352,1.709338 -0.601563,2.421875 0.0074,1.105342 0,1.476563 0,1.476563 0,2.050972 -0.320152,4.650067 -0.695975,6.537372 -0.375822,1.887305 0.805291,0.303835 0.805291,0.303835 2.155703,-3.22783 0.509825,-4.825712 0.509825,-6.886129 V 67.287109 64.96875 c 0.0022,-0.03115 1.89e-4,-0.05222 -0.0039,-0.06055 l -0.002,-0.002 h -0.002 -0.002 -0.002 z"
           transform="matrix(1.7851996,0,0,1,-38.365703,0.58649272)" />
        <path
           id="path19"
           style="opacity:1;fill:#ede0bc;fill-opacity:1;fill-rule:evenodd;stroke:none;stroke-width:1.41886;stroke-linecap:round;stroke-linejoin:round;stroke-opacity:0.618209;-inkscape-stroke:none"
           d="m 41.185547,61.703125 c 0.0087,1.703124 -0.502358,7.192645 -2.164063,7.322266 l -5.117187,0.398437 c -5.907185,0.460792 -6.20532,-3.700963 -9.101563,-6.011719 l 0.3125,1.125 c 2.896243,2.310756 3.194378,6.472511 9.101563,6.011719 l 5.117187,-0.398437 c 1.661705,-0.129621 2.040562,-3.30864 2.031862,-5.011764 z"
           sodipodi:nodetypes="ccccccccc" />
        <path
           id="path3"
           style="opacity:1;fill:#aa0000;fill-rule:evenodd;stroke:none;stroke-width:1.41886;stroke-linecap:round;stroke-linejoin:round;stroke-opacity:0.618209;-inkscape-stroke:none"
           d="m 42.973757,53.764072 c -0.459948,-7.68e-4 1.082752,1.55917 0.86918,2.118203 -0.135582,-0.06183 -1.211212,-0.54913 -1.563517,-0.484085 -0.669922,0.02766 0.546424,1.700144 0.546709,2.324768 -2.84e-4,0.624624 0.246666,-0.09071 0.842237,-0.09093 0.22572,-1.42e-4 0.859728,0.483011 1.46115,0.08451 0.610439,0.616107 1.068829,0.487839 1.891402,0.212891 0.595572,2.19e-4 0.567257,-0.357536 0.566973,-0.98216 2.85e-4,-0.624624 -1.467683,-2.432194 -1.459166,-1.846473 -0.02521,0.33514 -2.84e-4,0.770803 -0.165834,0.873816 -0.203858,-0.593597 -1.499543,-2.564269 -2.989134,-2.210537 z"
           sodipodi:nodetypes="ccccccccccc" />
      </g>
    </g>
    <text
       xml:space="preserve"
       style="font-size:17.5025px;line-height:12.8504px;font-family:'Bauhaus 93';-inkscape-font-specification:'Bauhaus 93, ';text-align:center;text-decoration-color:#000000;writing-mode:lr-tb;direction:ltr;text-anchor:middle;opacity:1;fill:#263829;fill-opacity:1;fill-rule:evenodd;stroke:none;stroke-width:0.3;stroke-linecap:round;stroke-linejoin:round;stroke-dasharray:none;stroke-opacity:1"
       x="7.7195802"
       y="46.6078"
       id="text29"
       transform="rotate(-37.804791)"><tspan
         sodipodi:role="line"
         id="tspan29"
         x="7.7195807"
         y="46.6078"
         style="font-style:normal;font-variant:normal;font-weight:normal;font-stretch:normal;font-family:'Gill Sans MT';-inkscape-font-specification:'Gill Sans MT';fill:#263829;fill-opacity:1">Chicken</tspan></text>
    <text
       xml:space="preserve"
       style="font-size:17.5025px;line-height:12.8504px;font-family:'Bauhaus 93';-inkscape-font-specification:'Bauhaus 93, ';text-align:center;text-decoration-color:#000000;writing-mode:lr-tb;direction:ltr;text-anchor:middle;opacity:0.12956419;fill:#000000;fill-opacity:1;fill-rule:evenodd;stroke:none;stroke-width:0.3;stroke-linecap:round;stroke-linejoin:round;stroke-dasharray:none;stroke-opacity:1"
       x="7.7946091"
       y="49.300831"
       id="text1"
       transform="rotate(-37.804791)"><tspan
         sodipodi:role="line"
         id="tspan1"
         x="7.7946095"
         y="49.300831"
         style="font-style:normal;font-variant:normal;font-weight:normal;font-stretch:normal;font-family:'Gill Sans MT';-inkscape-font-specification:'Gill Sans MT';fill:#000000;fill-opacity:1">Chicken</tspan></text>
  </g>
</svg>
